<?xml version="1.0" encoding="UTF-8" standalone="no"?>
<!-- Generator: Adobe Illustrator 15.0.0, SVG Export Plug-In . SVG Version: 6.00 Build 0)  -->

<svg
   xmlns:dc="http://purl.org/dc/elements/1.1/"
   xmlns:cc="http://creativecommons.org/ns#"
   xmlns:rdf="http://www.w3.org/1999/02/22-rdf-syntax-ns#"
   xmlns:svg="http://www.w3.org/2000/svg"
   xmlns="http://www.w3.org/2000/svg"
   xmlns:xlink="http://www.w3.org/1999/xlink"
   xmlns:sodipodi="http://sodipodi.sourceforge.net/DTD/sodipodi-0.dtd"
   xmlns:inkscape="http://www.inkscape.org/namespaces/inkscape"
   version="1.1"
   id="Layer_1"
   x="0px"
   y="0px"
   width="1565"
   height="1560"
   viewBox="0 0 1565 1560"
   enable-background="new 0 0 2000 2000"
   xml:space="preserve"
   inkscape:version="0.91 r13725"
   sodipodi:docname="saucal-logo-square.svg"><metadata
     id="metadata31"><rdf:RDF><cc:Work
         rdf:about=""><dc:format>image/svg+xml</dc:format><dc:type
           rdf:resource="http://purl.org/dc/dcmitype/StillImage" /><dc:title></dc:title></cc:Work></rdf:RDF></metadata><defs
     id="defs29" /><sodipodi:namedview
     pagecolor="#ffffff"
     bordercolor="#666666"
     borderopacity="1"
     objecttolerance="10"
     gridtolerance="10"
     guidetolerance="10"
     inkscape:pageopacity="0"
     inkscape:pageshadow="2"
     inkscape:window-width="1920"
     inkscape:window-height="1017"
     id="namedview27"
     showgrid="false"
     fit-margin-top="0"
     fit-margin-left="0"
     fit-margin-right="0"
     fit-margin-bottom="0"
     inkscape:zoom="0.25"
     inkscape:cx="827.99492"
     inkscape:cy="1073.7834"
     inkscape:window-x="-8"
     inkscape:window-y="-8"
     inkscape:window-maximized="1"
     inkscape:current-layer="Layer_1" /><g
     id="g3"
     transform="translate(-216.771,-223.8615)"
     style="fill:#ffffff"><path
       d="m 1779.873,1782.601 -1561.204,0 0,-1557.479 1561.204,0 0,1557.479 z m -1520.341,-40.865 1479.478,0 0,-1475.75 -1479.478,0 0,1475.75 z"
       id="path5"
       inkscape:connector-curvature="0"
       style="fill:#ffffff" /></g><g
     id="g7"
     transform="translate(-216.771,-223.8615)"
     style="fill:#ffffff"><defs
       id="defs9"><rect
         id="SVGID_1_"
         x="-2209.012"
         y="-1554.249"
         width="9394.2012"
         height="6078.6011" /></defs><clipPath
       id="SVGID_2_"><use
         xlink:href="#SVGID_1_"
         overflow="visible"
         id="use13"
         style="overflow:visible"
         x="0"
         y="0"
         width="100%"
         height="100%" /></clipPath><path
       clip-path="url(#SVGID_2_)"
       d="m 491.213,591.763 c 0,0 -23.385,-28.072 -23.385,-65.51 l 0,-35.083 c 0,-7.017 0.698,-13.867 2.052,-20.462 9.421,-46.283 50.192,-80.917 99.319,-80.917 56.136,0 101.366,45.225 101.366,101.379 l 0,65.493 -40.56,4.691 0,-70.184 c 0,-33.534 -27.292,-60.816 -60.807,-60.816 -33.532,0 -60.817,27.282 -60.817,60.816 l 0,35.083 c 0,22.62 14.028,38.999 14.028,38.999 l 123.994,147.376 c 0,0 24.161,28.84 24.161,67.066 l 0,50.682 c 0,56.146 -45.23,101.367 -101.366,101.367 -52.996,0 -96.251,-40.279 -100.943,-92.021 -0.275,-3.079 -0.428,-6.19 -0.428,-9.346 l 0,-77.192 40.554,-4.685 0,81.876 c 0,33.533 27.286,60.825 60.817,60.825 33.515,0 60.807,-27.292 60.807,-60.825 l 0,-50.682 c 0,-22.612 -14.811,-40.549 -14.811,-40.549 L 491.213,591.763 Z"
       id="path15"
       inkscape:connector-curvature="0"
       style="fill:#ffffff" /><path
       clip-path="url(#SVGID_2_)"
       d="m 1527.693,397.586 0,432.79 c 0,56.146 -45.248,101.371 -101.367,101.371 -56.152,0 -101.379,-45.226 -101.379,-101.371 l 0,-432.79 40.543,0 0,432.79 c 0,33.525 27.295,60.817 60.836,60.817 33.525,0 60.811,-27.292 60.811,-60.817 l 0,-432.79 40.556,0 z"
       id="path17"
       inkscape:connector-curvature="0"
       style="fill:#ffffff" /><path
       clip-path="url(#SVGID_2_)"
       d="m 630.006,1236.462 0,-82.663 c 0,-33.526 -27.292,-60.816 -60.813,-60.816 -33.532,0 -60.818,27.29 -60.818,60.816 l 0,339.191 c 0,33.556 27.286,60.825 60.818,60.825 33.521,0 60.813,-27.27 60.813,-60.825 l 0,-71.72 40.565,0 0,71.72 c 0,56.162 -45.245,101.378 -101.378,101.378 -56.154,0 -101.371,-45.216 -101.371,-101.378 l 0,-339.191 c 0,-56.153 45.217,-101.381 101.371,-101.381 56.134,0 101.378,45.228 101.378,101.381 l 0,77.979 -40.565,4.684 z"
       id="path19"
       inkscape:connector-curvature="0"
       style="fill:#ffffff" /></g><path
     d="m 734.93,524.6445 94.36,0 -45.99,-305.694 -1.581,0 -46.789,305.694 z m 162.213,175.446 -40.561,0 -21.049,-134.905 -106.822,0 -20.293,134.905 -40.543,0 80.306,-526.366 68.64,0 80.322,526.366 z"
     id="path21"
     inkscape:connector-curvature="0"
     style="fill:#ffffff" /><path
     d="m 734.955,1181.6975 94.354,0 -46.013,-305.666 -1.55,0 -46.791,305.666 z m 162.17,175.455 -40.543,0 -21.049,-134.904 -106.82,0 -20.27,134.904 -40.573,0 80.327,-526.371 68.623,0 80.305,526.371 z"
     id="path23"
     inkscape:connector-curvature="0"
     style="fill:#ffffff" /><polygon
     points="1333.069,1586.58 1333.069,1060.212 1373.633,1060.212 1373.633,1546.026 1537.538,1546.026 1537.538,1586.58 "
     id="polygon25"
     transform="translate(-216.771,-223.8615)"
     style="fill:#ffffff" /></svg>