<?xml version="1.0" encoding="UTF-8" standalone="no"?>
<!-- Generator: Adobe Illustrator 15.0.0, SVG Export Plug-In . SVG Version: 6.00 Build 0)  -->

<svg
   xmlns:dc="http://purl.org/dc/elements/1.1/"
   xmlns:cc="http://creativecommons.org/ns#"
   xmlns:rdf="http://www.w3.org/1999/02/22-rdf-syntax-ns#"
   xmlns:svg="http://www.w3.org/2000/svg"
   xmlns="http://www.w3.org/2000/svg"
   xmlns:xlink="http://www.w3.org/1999/xlink"
   xmlns:sodipodi="http://sodipodi.sourceforge.net/DTD/sodipodi-0.dtd"
   xmlns:inkscape="http://www.inkscape.org/namespaces/inkscape"
   version="1.1"
   id="Layer_1"
   x="0px"
   y="0px"
   width="1815"
   height="645"
   viewBox="0 0 1815 645"
   enable-background="new 0 0 2000 1000"
   xml:space="preserve"
   inkscape:version="0.91 r13725"
   sodipodi:docname="saucal-logo-full.svg"><metadata
     id="metadata39"><rdf:RDF><cc:Work
         rdf:about=""><dc:format>image/svg+xml</dc:format><dc:type
           rdf:resource="http://purl.org/dc/dcmitype/StillImage" /><dc:title></dc:title></cc:Work></rdf:RDF></metadata><defs
     id="defs37" /><sodipodi:namedview
     pagecolor="#ffffff"
     bordercolor="#666666"
     borderopacity="1"
     objecttolerance="10"
     gridtolerance="10"
     guidetolerance="10"
     inkscape:pageopacity="0"
     inkscape:pageshadow="2"
     inkscape:window-width="1920"
     inkscape:window-height="1017"
     id="namedview35"
     showgrid="false"
     fit-margin-top="0"
     fit-margin-left="0"
     fit-margin-right="0"
     fit-margin-bottom="0"
     inkscape:zoom="0.1745"
     inkscape:cx="194.74595"
     inkscape:cy="321.1"
     inkscape:window-x="-8"
     inkscape:window-y="-8"
     inkscape:window-maximized="1"
     inkscape:current-layer="Layer_1" /><g
     id="g3"
     transform="translate(-91.787,-176.10003)"
     style="fill:#ffffff"><defs
       id="defs5"><rect
         id="SVGID_1_"
         x="-913.96002"
         y="-1208.3979"
         width="5473.6938"
         height="3541.801" /></defs><clipPath
       id="SVGID_2_"><use
         xlink:href="#SVGID_1_"
         overflow="visible"
         id="use9"
         style="overflow:visible"
         x="0"
         y="0"
         width="100%"
         height="100%" /></clipPath><path
       clip-path="url(#SVGID_2_)"
       d="m 416.278,454.437 c 0,0 -13.52,-16.22 -13.52,-37.867 l 0,-20.279 c 0,-4.062 0.403,-8.02 1.179,-11.838 5.442,-26.752 29.02,-46.769 57.415,-46.769 32.453,0 58.607,26.14 58.607,58.606 l 0,37.858 -23.441,2.711 0,-40.569 c 0,-19.394 -15.777,-35.173 -35.166,-35.173 -19.38,0 -35.151,15.779 -35.151,35.173 l 0,20.279 c 0,13.073 8.105,22.543 8.105,22.543 l 71.686,85.2 c 0,0 13.968,16.68 13.968,38.775 l 0,29.301 c 0,32.463 -26.154,58.6 -58.607,58.6 -30.632,0 -55.639,-23.283 -58.349,-53.195 -0.163,-1.785 -0.245,-3.574 -0.245,-5.404 l 0,-44.631 23.442,-2.699 0,47.33 c 0,19.379 15.771,35.164 35.151,35.164 19.389,0 35.166,-15.785 35.166,-35.164 l 0,-29.301 c 0,-13.076 -8.572,-23.443 -8.572,-23.443 l -71.668,-85.208 z"
       id="path11"
       inkscape:connector-curvature="0"
       style="fill:#ffffff" /><path
       clip-path="url(#SVGID_2_)"
       d="m 897.751,342.181 0,250.208 c 0,32.463 -26.161,58.6 -58.599,58.6 -32.461,0 -58.611,-26.137 -58.611,-58.6 l 0,-250.208 23.445,0 0,250.208 c 0,19.379 15.776,35.152 35.166,35.152 19.381,0 35.147,-15.773 35.147,-35.152 l 0,-250.208 23.452,0 z"
       id="path13"
       inkscape:connector-curvature="0"
       style="fill:#ffffff" /></g><path
     d="m 525.27,373.46097 54.551,0 -26.586,-176.728 -0.922,0 -27.043,176.728 z m 93.776,101.427 -23.447,0 -12.163,-77.992 -61.763,0 -11.729,77.992 -23.442,0 46.429,-304.297 39.685,0 46.43,304.297 z"
     id="path15"
     inkscape:connector-curvature="0"
     style="fill:#ffffff" /><g
     id="g17"
     transform="translate(-91.787,-176.10003)"
     style="fill:#ffffff"><defs
       id="defs19"><rect
         id="SVGID_3_"
         x="-913.96002"
         y="-1208.3979"
         width="5473.6938"
         height="3541.801" /></defs><clipPath
       id="SVGID_4_"><use
         xlink:href="#SVGID_3_"
         overflow="visible"
         id="use23"
         style="overflow:visible"
         x="0"
         y="0"
         width="100%"
         height="100%" /></clipPath><path
       clip-path="url(#SVGID_4_)"
       d="m 1223.02,444.078 0,-47.787 c 0,-19.394 -15.77,-35.165 -35.15,-35.165 -19.395,0 -35.166,15.771 -35.166,35.165 l 0,196.086 c 0,19.391 15.771,35.164 35.166,35.164 19.381,0 35.15,-15.773 35.15,-35.164 l 0,-41.459 23.449,0 0,41.459 c 0,32.475 -26.152,58.611 -58.6,58.611 -32.474,0 -58.612,-26.137 -58.612,-58.611 l 0,-196.086 c 0,-32.467 26.139,-58.606 58.612,-58.606 32.447,0 58.6,26.14 58.6,58.606 l 0,45.07 -23.449,2.717 z"
       id="path25"
       inkscape:connector-curvature="0"
       style="fill:#ffffff" /></g><path
     d="m 1259.324,373.44897 54.548,0 -26.599,-176.708 -0.893,0 -27.056,176.708 z m 93.766,101.439 -23.447,0 -12.177,-77.992 -61.751,0 -11.715,77.992 -23.457,0 46.434,-304.297 39.678,0 46.435,304.297 z"
     id="path27"
     inkscape:connector-curvature="0"
     style="fill:#ffffff" /><polygon
     points="1506.303,342.173 1529.749,342.173 1529.749,623.041 1617.583,623.041 1617.583,646.486 1506.303,646.486 "
     id="polygon29"
     style="fill:#ffffff"
     transform="translate(-91.787,-176.10003)" /><polygon
     points="989.736,651.6 966.392,651.6 1042.697,342.736 1066.393,342.736 "
     id="polygon31"
     style="fill:#ffffff"
     transform="translate(-91.787,-176.10003)" /><path
     d="m 27.813,617.20497 1755.115,0 0,-585.068995 -1755.115,0 0,585.068995 z m 1782.919,27.795 -1810.732,0 0,-640.6759954 1810.731,0 0,640.6759954 z"
     id="path33"
     inkscape:connector-curvature="0"
     style="fill:#ffffff" /></svg>